<mxfile host="Electron" agent="Mozilla/5.0 (Macintosh; Intel Mac OS X 10_15_7) AppleWebKit/537.36 (KHTML, like Gecko) draw.io/26.0.4 Chrome/128.0.6613.186 Electron/32.2.5 Safari/537.36" version="26.0.4" pages="5">
  <diagram name="Page-1" id="-H_mtQnk-PTXWXPvYvuk">
    <mxGraphModel dx="794" dy="1214" grid="1" gridSize="10" guides="1" tooltips="1" connect="1" arrows="1" fold="1" page="1" pageScale="1" pageWidth="1169" pageHeight="827" math="0" shadow="0">
      <root>
        <mxCell id="0" />
        <mxCell id="1" parent="0" />
        <mxCell id="zA23MoTUsTF4_91t8viU-2" value="MongoDB" style="shape=cylinder3;whiteSpace=wrap;html=1;boundedLbl=1;backgroundOutline=1;size=15;" parent="1" vertex="1">
          <mxGeometry x="560" y="280" width="60" height="80" as="geometry" />
        </mxCell>
        <mxCell id="zA23MoTUsTF4_91t8viU-3" value="pymongo-api" style="rounded=1;whiteSpace=wrap;html=1;" parent="1" vertex="1">
          <mxGeometry x="360" y="290" width="120" height="60" as="geometry" />
        </mxCell>
        <mxCell id="zA23MoTUsTF4_91t8viU-4" style="edgeStyle=orthogonalEdgeStyle;rounded=0;orthogonalLoop=1;jettySize=auto;html=1;exitX=1;exitY=0.5;exitDx=0;exitDy=0;entryX=0;entryY=0.5;entryDx=0;entryDy=0;entryPerimeter=0;" parent="1" source="zA23MoTUsTF4_91t8viU-3" target="zA23MoTUsTF4_91t8viU-2" edge="1">
          <mxGeometry relative="1" as="geometry" />
        </mxCell>
      </root>
    </mxGraphModel>
  </diagram>
  <diagram id="ehaFqjUMnIgVz10DcQZo" name="Page-2">
    <mxGraphModel dx="794" dy="1214" grid="1" gridSize="10" guides="1" tooltips="1" connect="1" arrows="1" fold="1" page="1" pageScale="1" pageWidth="827" pageHeight="1169" math="0" shadow="0">
      <root>
        <mxCell id="0" />
        <mxCell id="1" parent="0" />
        <mxCell id="KbAe0JzU7eC-Ucts40u9-13" value="" style="rounded=1;whiteSpace=wrap;html=1;" vertex="1" parent="1">
          <mxGeometry x="430" y="390" width="100" height="120" as="geometry" />
        </mxCell>
        <mxCell id="KbAe0JzU7eC-Ucts40u9-12" value="" style="rounded=1;whiteSpace=wrap;html=1;" vertex="1" parent="1">
          <mxGeometry x="310" y="390" width="100" height="120" as="geometry" />
        </mxCell>
        <mxCell id="KbAe0JzU7eC-Ucts40u9-1" value="MongoDB" style="shape=cylinder3;whiteSpace=wrap;html=1;boundedLbl=1;backgroundOutline=1;size=15;" vertex="1" parent="1">
          <mxGeometry x="330" y="400" width="60" height="80" as="geometry" />
        </mxCell>
        <mxCell id="KbAe0JzU7eC-Ucts40u9-2" value="pymongo-api" style="rounded=1;whiteSpace=wrap;html=1;" vertex="1" parent="1">
          <mxGeometry x="360" y="290" width="120" height="60" as="geometry" />
        </mxCell>
        <mxCell id="KbAe0JzU7eC-Ucts40u9-4" value="MongoDB" style="shape=cylinder3;whiteSpace=wrap;html=1;boundedLbl=1;backgroundOutline=1;size=15;" vertex="1" parent="1">
          <mxGeometry x="450" y="400" width="60" height="80" as="geometry" />
        </mxCell>
        <mxCell id="KbAe0JzU7eC-Ucts40u9-5" value="ЦОД 1" style="text;html=1;align=center;verticalAlign=middle;whiteSpace=wrap;rounded=0;" vertex="1" parent="1">
          <mxGeometry x="330" y="480" width="60" height="30" as="geometry" />
        </mxCell>
        <mxCell id="KbAe0JzU7eC-Ucts40u9-6" value="ЦОД 1" style="text;html=1;align=center;verticalAlign=middle;whiteSpace=wrap;rounded=0;" vertex="1" parent="1">
          <mxGeometry x="450" y="480" width="60" height="30" as="geometry" />
        </mxCell>
        <mxCell id="KbAe0JzU7eC-Ucts40u9-7" style="edgeStyle=orthogonalEdgeStyle;rounded=0;orthogonalLoop=1;jettySize=auto;html=1;" edge="1" parent="1" source="KbAe0JzU7eC-Ucts40u9-2">
          <mxGeometry relative="1" as="geometry">
            <mxPoint x="360" y="390" as="targetPoint" />
          </mxGeometry>
        </mxCell>
        <mxCell id="KbAe0JzU7eC-Ucts40u9-8" style="edgeStyle=orthogonalEdgeStyle;rounded=0;orthogonalLoop=1;jettySize=auto;html=1;exitX=0.5;exitY=1;exitDx=0;exitDy=0;entryX=0.5;entryY=0;entryDx=0;entryDy=0;" edge="1" parent="1" source="KbAe0JzU7eC-Ucts40u9-2" target="KbAe0JzU7eC-Ucts40u9-13">
          <mxGeometry relative="1" as="geometry" />
        </mxCell>
        <mxCell id="KbAe0JzU7eC-Ucts40u9-9" style="edgeStyle=orthogonalEdgeStyle;rounded=0;orthogonalLoop=1;jettySize=auto;html=1;startArrow=classic;startFill=1;curved=1;exitX=0.5;exitY=1;exitDx=0;exitDy=0;entryX=0.5;entryY=1;entryDx=0;entryDy=0;" edge="1" parent="1" source="KbAe0JzU7eC-Ucts40u9-12" target="KbAe0JzU7eC-Ucts40u9-6">
          <mxGeometry relative="1" as="geometry">
            <mxPoint x="360" y="500" as="sourcePoint" />
            <mxPoint x="590" y="540" as="targetPoint" />
          </mxGeometry>
        </mxCell>
        <mxCell id="KbAe0JzU7eC-Ucts40u9-11" value="&lt;h1 style=&quot;margin-top: 0px;&quot;&gt;&lt;span style=&quot;text-align: center;&quot;&gt;&lt;font style=&quot;font-size: 14px;&quot;&gt;Шардирование по hash(user_id)%2&lt;/font&gt;&lt;/span&gt;&lt;br&gt;&lt;/h1&gt;&lt;p&gt;&lt;font&gt;где hash -&amp;nbsp;&lt;span style=&quot;color: rgb(64, 64, 64); background-color: transparent;&quot;&gt;хэш-функция (например, MD5) для преобразования ID пользователя в число, затем применяется остаток от деления на количество серверов (шардов)&lt;/span&gt;&lt;/font&gt;&lt;/p&gt;" style="text;html=1;whiteSpace=wrap;overflow=hidden;rounded=0;" vertex="1" parent="1">
          <mxGeometry x="277" y="550" width="286" height="120" as="geometry" />
        </mxCell>
      </root>
    </mxGraphModel>
  </diagram>
  <diagram id="QFrPfG6lKRrBkOmPKH1G" name="Page-3">
    <mxGraphModel dx="794" dy="1214" grid="1" gridSize="10" guides="1" tooltips="1" connect="1" arrows="1" fold="1" page="1" pageScale="1" pageWidth="827" pageHeight="1169" math="0" shadow="0">
      <root>
        <mxCell id="0" />
        <mxCell id="1" parent="0" />
        <mxCell id="oAhxxddBm8rGRJk-ysVj-2" value="" style="rounded=1;whiteSpace=wrap;html=1;" parent="1" vertex="1">
          <mxGeometry x="116" y="550" width="220" height="240" as="geometry" />
        </mxCell>
        <mxCell id="oAhxxddBm8rGRJk-ysVj-3" value="MongoDB&lt;div&gt;slave1&lt;/div&gt;" style="shape=cylinder3;whiteSpace=wrap;html=1;boundedLbl=1;backgroundOutline=1;size=15;" parent="1" vertex="1">
          <mxGeometry x="136" y="680" width="60" height="80" as="geometry" />
        </mxCell>
        <mxCell id="tLkku_3XalX9mfuIWKmj-2" style="edgeStyle=orthogonalEdgeStyle;rounded=0;orthogonalLoop=1;jettySize=auto;html=1;entryX=0.5;entryY=0;entryDx=0;entryDy=0;fillColor=#dae8fc;strokeColor=#6c8ebf;startArrow=classic;startFill=1;" edge="1" parent="1" source="oAhxxddBm8rGRJk-ysVj-4" target="tLkku_3XalX9mfuIWKmj-1">
          <mxGeometry relative="1" as="geometry" />
        </mxCell>
        <mxCell id="oAhxxddBm8rGRJk-ysVj-4" value="pymongo-api" style="rounded=1;whiteSpace=wrap;html=1;fillColor=#d5e8d4;strokeColor=#82b366;" parent="1" vertex="1">
          <mxGeometry x="360" y="207" width="120" height="60" as="geometry" />
        </mxCell>
        <mxCell id="oAhxxddBm8rGRJk-ysVj-6" value="shard1-1" style="text;html=1;align=center;verticalAlign=middle;whiteSpace=wrap;rounded=0;" parent="1" vertex="1">
          <mxGeometry x="196" y="760" width="60" height="30" as="geometry" />
        </mxCell>
        <mxCell id="oAhxxddBm8rGRJk-ysVj-11" value="&lt;h1 style=&quot;margin-top: 0px;&quot;&gt;&lt;span style=&quot;text-align: center;&quot;&gt;&lt;font style=&quot;font-size: 14px;&quot;&gt;Шардирование по hash(user_id)%2&lt;/font&gt;&lt;/span&gt;&lt;br&gt;&lt;/h1&gt;&lt;p&gt;&lt;font&gt;где hash -&amp;nbsp;&lt;span style=&quot;color: rgb(64, 64, 64); background-color: transparent;&quot;&gt;хэш-функция (например, MD5) для преобразования ID пользователя в число, затем применяется остаток от деления на количество серверов (шардов).&lt;/span&gt;&lt;/font&gt;&lt;/p&gt;" style="text;html=1;whiteSpace=wrap;overflow=hidden;rounded=0;" parent="1" vertex="1">
          <mxGeometry x="50" y="870" width="286" height="120" as="geometry" />
        </mxCell>
        <mxCell id="oAhxxddBm8rGRJk-ysVj-12" value="MongoDB&lt;div&gt;slave2&lt;/div&gt;" style="shape=cylinder3;whiteSpace=wrap;html=1;boundedLbl=1;backgroundOutline=1;size=15;" parent="1" vertex="1">
          <mxGeometry x="256" y="680" width="60" height="80" as="geometry" />
        </mxCell>
        <mxCell id="oAhxxddBm8rGRJk-ysVj-13" value="MongoDB&lt;div&gt;master&lt;/div&gt;" style="shape=cylinder3;whiteSpace=wrap;html=1;boundedLbl=1;backgroundOutline=1;size=15;fillColor=#dae8fc;strokeColor=#6c8ebf;" parent="1" vertex="1">
          <mxGeometry x="196" y="560" width="60" height="80" as="geometry" />
        </mxCell>
        <mxCell id="oAhxxddBm8rGRJk-ysVj-14" style="edgeStyle=orthogonalEdgeStyle;rounded=0;orthogonalLoop=1;jettySize=auto;html=1;exitX=0.5;exitY=0;exitDx=0;exitDy=0;exitPerimeter=0;entryX=0.5;entryY=1;entryDx=0;entryDy=0;entryPerimeter=0;startArrow=classic;startFill=1;curved=1;" parent="1" source="oAhxxddBm8rGRJk-ysVj-12" target="oAhxxddBm8rGRJk-ysVj-13" edge="1">
          <mxGeometry relative="1" as="geometry" />
        </mxCell>
        <mxCell id="oAhxxddBm8rGRJk-ysVj-28" value="репликация" style="edgeLabel;html=1;align=center;verticalAlign=middle;resizable=0;points=[];" parent="oAhxxddBm8rGRJk-ysVj-14" vertex="1" connectable="0">
          <mxGeometry x="0.18" relative="1" as="geometry">
            <mxPoint x="-21" y="6" as="offset" />
          </mxGeometry>
        </mxCell>
        <mxCell id="oAhxxddBm8rGRJk-ysVj-15" style="edgeStyle=orthogonalEdgeStyle;rounded=0;orthogonalLoop=1;jettySize=auto;html=1;exitX=0.5;exitY=0;exitDx=0;exitDy=0;exitPerimeter=0;entryX=0.5;entryY=1;entryDx=0;entryDy=0;entryPerimeter=0;strokeColor=default;startArrow=classic;startFill=1;curved=1;" parent="1" source="oAhxxddBm8rGRJk-ysVj-3" target="oAhxxddBm8rGRJk-ysVj-13" edge="1">
          <mxGeometry relative="1" as="geometry" />
        </mxCell>
        <mxCell id="oAhxxddBm8rGRJk-ysVj-17" value="" style="rounded=1;whiteSpace=wrap;html=1;" parent="1" vertex="1">
          <mxGeometry x="502" y="550" width="220" height="240" as="geometry" />
        </mxCell>
        <mxCell id="oAhxxddBm8rGRJk-ysVj-18" value="MongoDB&lt;div&gt;slave1&lt;/div&gt;" style="shape=cylinder3;whiteSpace=wrap;html=1;boundedLbl=1;backgroundOutline=1;size=15;" parent="1" vertex="1">
          <mxGeometry x="522" y="680" width="60" height="80" as="geometry" />
        </mxCell>
        <mxCell id="oAhxxddBm8rGRJk-ysVj-19" value="shard1-2" style="text;html=1;align=center;verticalAlign=middle;whiteSpace=wrap;rounded=0;" parent="1" vertex="1">
          <mxGeometry x="582" y="760" width="60" height="30" as="geometry" />
        </mxCell>
        <mxCell id="oAhxxddBm8rGRJk-ysVj-20" value="MongoDB&lt;div&gt;slave2&lt;/div&gt;" style="shape=cylinder3;whiteSpace=wrap;html=1;boundedLbl=1;backgroundOutline=1;size=15;" parent="1" vertex="1">
          <mxGeometry x="642" y="680" width="60" height="80" as="geometry" />
        </mxCell>
        <mxCell id="oAhxxddBm8rGRJk-ysVj-21" value="MongoDB&lt;div&gt;master&lt;/div&gt;" style="shape=cylinder3;whiteSpace=wrap;html=1;boundedLbl=1;backgroundOutline=1;size=15;fillColor=#dae8fc;strokeColor=#6c8ebf;" parent="1" vertex="1">
          <mxGeometry x="582" y="560" width="60" height="80" as="geometry" />
        </mxCell>
        <mxCell id="oAhxxddBm8rGRJk-ysVj-22" style="edgeStyle=orthogonalEdgeStyle;rounded=0;orthogonalLoop=1;jettySize=auto;html=1;exitX=0.5;exitY=0;exitDx=0;exitDy=0;exitPerimeter=0;entryX=0.5;entryY=1;entryDx=0;entryDy=0;entryPerimeter=0;startArrow=classic;startFill=1;curved=1;" parent="1" source="oAhxxddBm8rGRJk-ysVj-20" target="oAhxxddBm8rGRJk-ysVj-21" edge="1">
          <mxGeometry relative="1" as="geometry" />
        </mxCell>
        <mxCell id="oAhxxddBm8rGRJk-ysVj-23" style="edgeStyle=orthogonalEdgeStyle;rounded=0;orthogonalLoop=1;jettySize=auto;html=1;exitX=0.5;exitY=0;exitDx=0;exitDy=0;exitPerimeter=0;entryX=0.5;entryY=1;entryDx=0;entryDy=0;entryPerimeter=0;strokeColor=default;startArrow=classic;startFill=1;curved=1;" parent="1" source="oAhxxddBm8rGRJk-ysVj-18" target="oAhxxddBm8rGRJk-ysVj-21" edge="1">
          <mxGeometry relative="1" as="geometry" />
        </mxCell>
        <mxCell id="oAhxxddBm8rGRJk-ysVj-29" value="репликация" style="edgeLabel;html=1;align=center;verticalAlign=middle;resizable=0;points=[];" parent="1" vertex="1" connectable="0">
          <mxGeometry x="612" y="666" as="geometry" />
        </mxCell>
        <mxCell id="oAhxxddBm8rGRJk-ysVj-30" style="edgeStyle=orthogonalEdgeStyle;rounded=0;orthogonalLoop=1;jettySize=auto;html=1;exitX=1;exitY=0.5;exitDx=0;exitDy=0;exitPerimeter=0;entryX=0;entryY=0.5;entryDx=0;entryDy=0;entryPerimeter=0;strokeColor=default;startArrow=classic;startFill=1;dashed=1;" parent="1" source="oAhxxddBm8rGRJk-ysVj-13" target="oAhxxddBm8rGRJk-ysVj-21" edge="1">
          <mxGeometry relative="1" as="geometry" />
        </mxCell>
        <mxCell id="oAhxxddBm8rGRJk-ysVj-31" value="multi-master репликация" style="edgeLabel;html=1;align=center;verticalAlign=middle;resizable=0;points=[];fontSize=12;" parent="oAhxxddBm8rGRJk-ysVj-30" vertex="1" connectable="0">
          <mxGeometry x="-0.0333" y="-1" relative="1" as="geometry">
            <mxPoint x="6" y="-1" as="offset" />
          </mxGeometry>
        </mxCell>
        <mxCell id="oAhxxddBm8rGRJk-ysVj-33" style="edgeStyle=orthogonalEdgeStyle;rounded=0;orthogonalLoop=1;jettySize=auto;html=1;entryX=0.5;entryY=1;entryDx=0;entryDy=0;startArrow=classic;startFill=1;curved=1;exitX=0.5;exitY=1;exitDx=0;exitDy=0;fillColor=#dae8fc;strokeColor=#6c8ebf;" parent="1" source="oAhxxddBm8rGRJk-ysVj-17" target="oAhxxddBm8rGRJk-ysVj-2" edge="1">
          <mxGeometry relative="1" as="geometry">
            <Array as="points">
              <mxPoint x="612" y="830" />
              <mxPoint x="226" y="830" />
            </Array>
            <mxPoint x="760" y="950" as="sourcePoint" />
          </mxGeometry>
        </mxCell>
        <mxCell id="oAhxxddBm8rGRJk-ysVj-34" value="&lt;h1 style=&quot;margin-top: 0px;&quot;&gt;&lt;span style=&quot;text-align: center;&quot;&gt;&lt;font style=&quot;font-size: 14px;&quot;&gt;Репликация multi-master&lt;/font&gt;&lt;/span&gt;&lt;br&gt;&lt;/h1&gt;&lt;p&gt;&lt;span style=&quot;color: rgba(0, 0, 0, 0.85); white-space-collapse: preserve; background-color: rgb(255, 255, 255);&quot;&gt;&lt;font face=&quot;Helvetica&quot; style=&quot;&quot;&gt;для поддержания горячей резервной копии всех сервисов в другом ЦОДе, сохраняя в самом ЦОДе репликацию master-slave.&lt;/font&gt;&lt;/span&gt;&lt;br&gt;&lt;/p&gt;" style="text;html=1;whiteSpace=wrap;overflow=hidden;rounded=0;" parent="1" vertex="1">
          <mxGeometry x="56" y="1020" width="286" height="120" as="geometry" />
        </mxCell>
        <mxCell id="l_Z6612bCdNlei68PM5U-2" value="Redis" style="shape=cylinder3;whiteSpace=wrap;html=1;boundedLbl=1;backgroundOutline=1;size=15;fillColor=#f8cecc;strokeColor=#b85450;" parent="1" vertex="1">
          <mxGeometry x="270" y="327" width="60" height="80" as="geometry" />
        </mxCell>
        <mxCell id="l_Z6612bCdNlei68PM5U-3" style="edgeStyle=orthogonalEdgeStyle;rounded=0;orthogonalLoop=1;jettySize=auto;html=1;exitX=0.25;exitY=1;exitDx=0;exitDy=0;entryX=0.5;entryY=0;entryDx=0;entryDy=0;entryPerimeter=0;fillColor=#f8cecc;strokeColor=#b85450;startArrow=classic;startFill=1;" parent="1" source="oAhxxddBm8rGRJk-ysVj-4" target="l_Z6612bCdNlei68PM5U-2" edge="1">
          <mxGeometry relative="1" as="geometry">
            <Array as="points">
              <mxPoint x="390" y="297" />
              <mxPoint x="300" y="297" />
            </Array>
          </mxGeometry>
        </mxCell>
        <mxCell id="tLkku_3XalX9mfuIWKmj-4" style="edgeStyle=orthogonalEdgeStyle;rounded=0;orthogonalLoop=1;jettySize=auto;html=1;exitX=0.5;exitY=1;exitDx=0;exitDy=0;entryX=0.5;entryY=0;entryDx=0;entryDy=0;fillColor=#dae8fc;strokeColor=#6c8ebf;startArrow=classic;startFill=1;" edge="1" parent="1" source="tLkku_3XalX9mfuIWKmj-1" target="tLkku_3XalX9mfuIWKmj-3">
          <mxGeometry relative="1" as="geometry" />
        </mxCell>
        <mxCell id="tLkku_3XalX9mfuIWKmj-1" value="driver" style="rounded=1;whiteSpace=wrap;html=1;" vertex="1" parent="1">
          <mxGeometry x="360" y="327" width="120" height="60" as="geometry" />
        </mxCell>
        <mxCell id="tLkku_3XalX9mfuIWKmj-8" style="edgeStyle=orthogonalEdgeStyle;rounded=0;orthogonalLoop=1;jettySize=auto;html=1;fillColor=#dae8fc;strokeColor=#6c8ebf;" edge="1" parent="1" source="tLkku_3XalX9mfuIWKmj-3" target="tLkku_3XalX9mfuIWKmj-5">
          <mxGeometry relative="1" as="geometry" />
        </mxCell>
        <mxCell id="tLkku_3XalX9mfuIWKmj-9" style="edgeStyle=orthogonalEdgeStyle;rounded=0;orthogonalLoop=1;jettySize=auto;html=1;entryX=0.5;entryY=0;entryDx=0;entryDy=0;exitX=0.5;exitY=1;exitDx=0;exitDy=0;fillColor=#dae8fc;strokeColor=#6c8ebf;" edge="1" parent="1" source="tLkku_3XalX9mfuIWKmj-3" target="oAhxxddBm8rGRJk-ysVj-2">
          <mxGeometry relative="1" as="geometry">
            <Array as="points">
              <mxPoint x="420" y="520" />
              <mxPoint x="226" y="520" />
            </Array>
          </mxGeometry>
        </mxCell>
        <mxCell id="tLkku_3XalX9mfuIWKmj-10" style="edgeStyle=orthogonalEdgeStyle;rounded=0;orthogonalLoop=1;jettySize=auto;html=1;entryX=0.5;entryY=0;entryDx=0;entryDy=0;exitX=0.5;exitY=1;exitDx=0;exitDy=0;fillColor=#dae8fc;strokeColor=#6c8ebf;" edge="1" parent="1" source="tLkku_3XalX9mfuIWKmj-3" target="oAhxxddBm8rGRJk-ysVj-17">
          <mxGeometry relative="1" as="geometry">
            <Array as="points">
              <mxPoint x="420" y="520" />
              <mxPoint x="612" y="520" />
            </Array>
          </mxGeometry>
        </mxCell>
        <mxCell id="tLkku_3XalX9mfuIWKmj-3" value="router" style="rounded=1;whiteSpace=wrap;html=1;" vertex="1" parent="1">
          <mxGeometry x="360" y="417" width="120" height="60" as="geometry" />
        </mxCell>
        <mxCell id="tLkku_3XalX9mfuIWKmj-6" style="edgeStyle=orthogonalEdgeStyle;rounded=0;orthogonalLoop=1;jettySize=auto;html=1;startArrow=classic;startFill=1;endArrow=none;endFill=0;fillColor=#dae8fc;strokeColor=#6c8ebf;" edge="1" parent="1" source="tLkku_3XalX9mfuIWKmj-5" target="oAhxxddBm8rGRJk-ysVj-2">
          <mxGeometry relative="1" as="geometry" />
        </mxCell>
        <mxCell id="tLkku_3XalX9mfuIWKmj-7" style="edgeStyle=orthogonalEdgeStyle;rounded=0;orthogonalLoop=1;jettySize=auto;html=1;entryX=0;entryY=0.5;entryDx=0;entryDy=0;startArrow=classic;startFill=1;endArrow=none;endFill=0;fillColor=#dae8fc;strokeColor=#6c8ebf;" edge="1" parent="1" source="tLkku_3XalX9mfuIWKmj-5" target="oAhxxddBm8rGRJk-ysVj-17">
          <mxGeometry relative="1" as="geometry" />
        </mxCell>
        <mxCell id="tLkku_3XalX9mfuIWKmj-5" value="configSvr" style="rounded=1;whiteSpace=wrap;html=1;" vertex="1" parent="1">
          <mxGeometry x="360" y="640" width="120" height="60" as="geometry" />
        </mxCell>
      </root>
    </mxGraphModel>
  </diagram>
  <diagram id="geT0t4Jr3BjpA7vh6pUq" name="Page-4">
    <mxGraphModel dx="794" dy="2383" grid="1" gridSize="10" guides="1" tooltips="1" connect="1" arrows="1" fold="1" page="1" pageScale="1" pageWidth="827" pageHeight="1169" math="0" shadow="0">
      <root>
        <mxCell id="0" />
        <mxCell id="1" parent="0" />
        <mxCell id="n3k1JbFh0K-jd4gUptxQ-1" value="" style="rounded=1;whiteSpace=wrap;html=1;fillColor=default;strokeColor=#6c8ebf;" vertex="1" parent="1">
          <mxGeometry x="116" y="550" width="220" height="240" as="geometry" />
        </mxCell>
        <mxCell id="n3k1JbFh0K-jd4gUptxQ-2" value="MongoDB&lt;div&gt;slave1&lt;/div&gt;" style="shape=cylinder3;whiteSpace=wrap;html=1;boundedLbl=1;backgroundOutline=1;size=15;" vertex="1" parent="1">
          <mxGeometry x="136" y="680" width="60" height="80" as="geometry" />
        </mxCell>
        <mxCell id="n3k1JbFh0K-jd4gUptxQ-3" style="edgeStyle=orthogonalEdgeStyle;rounded=0;orthogonalLoop=1;jettySize=auto;html=1;entryX=0.5;entryY=0;entryDx=0;entryDy=0;fillColor=#dae8fc;strokeColor=#6c8ebf;startArrow=classic;startFill=1;exitX=0.75;exitY=1;exitDx=0;exitDy=0;" edge="1" parent="1" source="n3k1JbFh0K-jd4gUptxQ-4" target="n3k1JbFh0K-jd4gUptxQ-27">
          <mxGeometry relative="1" as="geometry">
            <Array as="points">
              <mxPoint x="570" y="300" />
              <mxPoint x="420" y="300" />
            </Array>
          </mxGeometry>
        </mxCell>
        <mxCell id="n3k1JbFh0K-jd4gUptxQ-55" style="edgeStyle=orthogonalEdgeStyle;rounded=0;orthogonalLoop=1;jettySize=auto;html=1;exitX=0.75;exitY=0;exitDx=0;exitDy=0;entryX=0.625;entryY=1;entryDx=0;entryDy=0;dashed=1;fillColor=#e1d5e7;strokeColor=#9673a6;" edge="1" parent="1" source="n3k1JbFh0K-jd4gUptxQ-4" target="n3k1JbFh0K-jd4gUptxQ-50">
          <mxGeometry relative="1" as="geometry">
            <Array as="points">
              <mxPoint x="570" y="70" />
              <mxPoint x="687" y="70" />
            </Array>
          </mxGeometry>
        </mxCell>
        <mxCell id="n3k1JbFh0K-jd4gUptxQ-4" value="pymongo-api" style="rounded=1;whiteSpace=wrap;html=1;fillColor=#d5e8d4;strokeColor=#82b366;" vertex="1" parent="1">
          <mxGeometry x="480" y="90" width="120" height="60" as="geometry" />
        </mxCell>
        <mxCell id="n3k1JbFh0K-jd4gUptxQ-5" value="shard1-1" style="text;html=1;align=center;verticalAlign=middle;whiteSpace=wrap;rounded=0;" vertex="1" parent="1">
          <mxGeometry x="196" y="760" width="60" height="30" as="geometry" />
        </mxCell>
        <mxCell id="n3k1JbFh0K-jd4gUptxQ-6" value="&lt;h1 style=&quot;margin-top: 0px;&quot;&gt;&lt;span style=&quot;text-align: center;&quot;&gt;&lt;font style=&quot;font-size: 14px;&quot;&gt;Шардирование по hash(user_id)%2&lt;/font&gt;&lt;/span&gt;&lt;br&gt;&lt;/h1&gt;&lt;p&gt;&lt;font&gt;где hash -&amp;nbsp;&lt;span style=&quot;color: rgb(64, 64, 64); background-color: transparent;&quot;&gt;хэш-функция (например, MD5) для преобразования ID пользователя в число, затем применяется остаток от деления на количество серверов (шардов).&lt;/span&gt;&lt;/font&gt;&lt;/p&gt;" style="text;html=1;whiteSpace=wrap;overflow=hidden;rounded=0;" vertex="1" parent="1">
          <mxGeometry x="50" y="870" width="286" height="120" as="geometry" />
        </mxCell>
        <mxCell id="n3k1JbFh0K-jd4gUptxQ-7" value="MongoDB&lt;div&gt;slave2&lt;/div&gt;" style="shape=cylinder3;whiteSpace=wrap;html=1;boundedLbl=1;backgroundOutline=1;size=15;" vertex="1" parent="1">
          <mxGeometry x="256" y="680" width="60" height="80" as="geometry" />
        </mxCell>
        <mxCell id="n3k1JbFh0K-jd4gUptxQ-8" value="MongoDB&lt;div&gt;master&lt;/div&gt;" style="shape=cylinder3;whiteSpace=wrap;html=1;boundedLbl=1;backgroundOutline=1;size=15;fillColor=default;strokeColor=#6c8ebf;" vertex="1" parent="1">
          <mxGeometry x="196" y="560" width="60" height="80" as="geometry" />
        </mxCell>
        <mxCell id="n3k1JbFh0K-jd4gUptxQ-9" style="edgeStyle=orthogonalEdgeStyle;rounded=0;orthogonalLoop=1;jettySize=auto;html=1;exitX=0.5;exitY=0;exitDx=0;exitDy=0;exitPerimeter=0;entryX=0.5;entryY=1;entryDx=0;entryDy=0;entryPerimeter=0;startArrow=classic;startFill=1;curved=1;" edge="1" parent="1" source="n3k1JbFh0K-jd4gUptxQ-7" target="n3k1JbFh0K-jd4gUptxQ-8">
          <mxGeometry relative="1" as="geometry" />
        </mxCell>
        <mxCell id="n3k1JbFh0K-jd4gUptxQ-10" value="репликация" style="edgeLabel;html=1;align=center;verticalAlign=middle;resizable=0;points=[];" vertex="1" connectable="0" parent="n3k1JbFh0K-jd4gUptxQ-9">
          <mxGeometry x="0.18" relative="1" as="geometry">
            <mxPoint x="-21" y="6" as="offset" />
          </mxGeometry>
        </mxCell>
        <mxCell id="n3k1JbFh0K-jd4gUptxQ-11" style="edgeStyle=orthogonalEdgeStyle;rounded=0;orthogonalLoop=1;jettySize=auto;html=1;exitX=0.5;exitY=0;exitDx=0;exitDy=0;exitPerimeter=0;entryX=0.5;entryY=1;entryDx=0;entryDy=0;entryPerimeter=0;strokeColor=default;startArrow=classic;startFill=1;curved=1;" edge="1" parent="1" source="n3k1JbFh0K-jd4gUptxQ-2" target="n3k1JbFh0K-jd4gUptxQ-8">
          <mxGeometry relative="1" as="geometry" />
        </mxCell>
        <mxCell id="n3k1JbFh0K-jd4gUptxQ-12" value="" style="rounded=1;whiteSpace=wrap;html=1;fillColor=default;strokeColor=#6c8ebf;" vertex="1" parent="1">
          <mxGeometry x="502" y="550" width="220" height="240" as="geometry" />
        </mxCell>
        <mxCell id="n3k1JbFh0K-jd4gUptxQ-13" value="MongoDB&lt;div&gt;slave1&lt;/div&gt;" style="shape=cylinder3;whiteSpace=wrap;html=1;boundedLbl=1;backgroundOutline=1;size=15;" vertex="1" parent="1">
          <mxGeometry x="522" y="680" width="60" height="80" as="geometry" />
        </mxCell>
        <mxCell id="n3k1JbFh0K-jd4gUptxQ-14" value="shard1-2" style="text;html=1;align=center;verticalAlign=middle;whiteSpace=wrap;rounded=0;" vertex="1" parent="1">
          <mxGeometry x="582" y="760" width="60" height="30" as="geometry" />
        </mxCell>
        <mxCell id="n3k1JbFh0K-jd4gUptxQ-15" value="MongoDB&lt;div&gt;slave2&lt;/div&gt;" style="shape=cylinder3;whiteSpace=wrap;html=1;boundedLbl=1;backgroundOutline=1;size=15;" vertex="1" parent="1">
          <mxGeometry x="642" y="680" width="60" height="80" as="geometry" />
        </mxCell>
        <mxCell id="n3k1JbFh0K-jd4gUptxQ-16" value="MongoDB&lt;div&gt;master&lt;/div&gt;" style="shape=cylinder3;whiteSpace=wrap;html=1;boundedLbl=1;backgroundOutline=1;size=15;fillColor=default;strokeColor=#6c8ebf;" vertex="1" parent="1">
          <mxGeometry x="582" y="560" width="60" height="80" as="geometry" />
        </mxCell>
        <mxCell id="n3k1JbFh0K-jd4gUptxQ-17" style="edgeStyle=orthogonalEdgeStyle;rounded=0;orthogonalLoop=1;jettySize=auto;html=1;exitX=0.5;exitY=0;exitDx=0;exitDy=0;exitPerimeter=0;entryX=0.5;entryY=1;entryDx=0;entryDy=0;entryPerimeter=0;startArrow=classic;startFill=1;curved=1;" edge="1" parent="1" source="n3k1JbFh0K-jd4gUptxQ-15" target="n3k1JbFh0K-jd4gUptxQ-16">
          <mxGeometry relative="1" as="geometry" />
        </mxCell>
        <mxCell id="n3k1JbFh0K-jd4gUptxQ-18" style="edgeStyle=orthogonalEdgeStyle;rounded=0;orthogonalLoop=1;jettySize=auto;html=1;exitX=0.5;exitY=0;exitDx=0;exitDy=0;exitPerimeter=0;entryX=0.5;entryY=1;entryDx=0;entryDy=0;entryPerimeter=0;strokeColor=default;startArrow=classic;startFill=1;curved=1;" edge="1" parent="1" source="n3k1JbFh0K-jd4gUptxQ-13" target="n3k1JbFh0K-jd4gUptxQ-16">
          <mxGeometry relative="1" as="geometry" />
        </mxCell>
        <mxCell id="n3k1JbFh0K-jd4gUptxQ-19" value="репликация" style="edgeLabel;html=1;align=center;verticalAlign=middle;resizable=0;points=[];" vertex="1" connectable="0" parent="1">
          <mxGeometry x="612" y="666" as="geometry" />
        </mxCell>
        <mxCell id="n3k1JbFh0K-jd4gUptxQ-20" style="edgeStyle=orthogonalEdgeStyle;rounded=0;orthogonalLoop=1;jettySize=auto;html=1;exitX=1;exitY=0.5;exitDx=0;exitDy=0;exitPerimeter=0;entryX=0;entryY=0.5;entryDx=0;entryDy=0;entryPerimeter=0;strokeColor=default;startArrow=classic;startFill=1;dashed=1;" edge="1" parent="1" source="n3k1JbFh0K-jd4gUptxQ-8" target="n3k1JbFh0K-jd4gUptxQ-16">
          <mxGeometry relative="1" as="geometry" />
        </mxCell>
        <mxCell id="n3k1JbFh0K-jd4gUptxQ-21" value="multi-master репликация" style="edgeLabel;html=1;align=center;verticalAlign=middle;resizable=0;points=[];fontSize=12;" vertex="1" connectable="0" parent="n3k1JbFh0K-jd4gUptxQ-20">
          <mxGeometry x="-0.0333" y="-1" relative="1" as="geometry">
            <mxPoint x="6" y="-1" as="offset" />
          </mxGeometry>
        </mxCell>
        <mxCell id="n3k1JbFh0K-jd4gUptxQ-22" style="edgeStyle=orthogonalEdgeStyle;rounded=0;orthogonalLoop=1;jettySize=auto;html=1;entryX=0.5;entryY=1;entryDx=0;entryDy=0;startArrow=classic;startFill=1;curved=1;exitX=0.5;exitY=1;exitDx=0;exitDy=0;fillColor=#dae8fc;strokeColor=#6c8ebf;" edge="1" parent="1" source="n3k1JbFh0K-jd4gUptxQ-12" target="n3k1JbFh0K-jd4gUptxQ-1">
          <mxGeometry relative="1" as="geometry">
            <Array as="points">
              <mxPoint x="612" y="830" />
              <mxPoint x="226" y="830" />
            </Array>
            <mxPoint x="760" y="950" as="sourcePoint" />
          </mxGeometry>
        </mxCell>
        <mxCell id="n3k1JbFh0K-jd4gUptxQ-23" value="&lt;h1 style=&quot;margin-top: 0px;&quot;&gt;&lt;span style=&quot;text-align: center;&quot;&gt;&lt;font style=&quot;font-size: 14px;&quot;&gt;Репликация multi-master&lt;/font&gt;&lt;/span&gt;&lt;br&gt;&lt;/h1&gt;&lt;p&gt;&lt;span style=&quot;color: rgba(0, 0, 0, 0.85); white-space-collapse: preserve; background-color: rgb(255, 255, 255);&quot;&gt;&lt;font face=&quot;Helvetica&quot; style=&quot;&quot;&gt;для поддержания горячей резервной копии всех сервисов в другом ЦОДе, сохраняя в самом ЦОДе репликацию master-slave.&lt;/font&gt;&lt;/span&gt;&lt;br&gt;&lt;/p&gt;" style="text;html=1;whiteSpace=wrap;overflow=hidden;rounded=0;" vertex="1" parent="1">
          <mxGeometry x="56" y="1020" width="286" height="120" as="geometry" />
        </mxCell>
        <mxCell id="n3k1JbFh0K-jd4gUptxQ-24" value="Redis" style="shape=cylinder3;whiteSpace=wrap;html=1;boundedLbl=1;backgroundOutline=1;size=15;fillColor=#f8cecc;strokeColor=#b85450;" vertex="1" parent="1">
          <mxGeometry x="390" y="197" width="60" height="80" as="geometry" />
        </mxCell>
        <mxCell id="n3k1JbFh0K-jd4gUptxQ-26" style="edgeStyle=orthogonalEdgeStyle;rounded=0;orthogonalLoop=1;jettySize=auto;html=1;exitX=0.5;exitY=1;exitDx=0;exitDy=0;entryX=0.5;entryY=0;entryDx=0;entryDy=0;fillColor=#dae8fc;strokeColor=#6c8ebf;startArrow=classic;startFill=1;" edge="1" parent="1" source="n3k1JbFh0K-jd4gUptxQ-27" target="n3k1JbFh0K-jd4gUptxQ-31">
          <mxGeometry relative="1" as="geometry" />
        </mxCell>
        <mxCell id="n3k1JbFh0K-jd4gUptxQ-27" value="driver" style="rounded=1;whiteSpace=wrap;html=1;fillColor=#dae8fc;strokeColor=#6c8ebf;" vertex="1" parent="1">
          <mxGeometry x="360" y="327" width="120" height="60" as="geometry" />
        </mxCell>
        <mxCell id="n3k1JbFh0K-jd4gUptxQ-28" style="edgeStyle=orthogonalEdgeStyle;rounded=0;orthogonalLoop=1;jettySize=auto;html=1;fillColor=#dae8fc;strokeColor=#6c8ebf;" edge="1" parent="1" source="n3k1JbFh0K-jd4gUptxQ-31" target="n3k1JbFh0K-jd4gUptxQ-34">
          <mxGeometry relative="1" as="geometry" />
        </mxCell>
        <mxCell id="n3k1JbFh0K-jd4gUptxQ-29" style="edgeStyle=orthogonalEdgeStyle;rounded=0;orthogonalLoop=1;jettySize=auto;html=1;entryX=0.5;entryY=0;entryDx=0;entryDy=0;exitX=0.5;exitY=1;exitDx=0;exitDy=0;fillColor=#dae8fc;strokeColor=#6c8ebf;" edge="1" parent="1" source="n3k1JbFh0K-jd4gUptxQ-31" target="n3k1JbFh0K-jd4gUptxQ-1">
          <mxGeometry relative="1" as="geometry">
            <Array as="points">
              <mxPoint x="420" y="520" />
              <mxPoint x="226" y="520" />
            </Array>
          </mxGeometry>
        </mxCell>
        <mxCell id="n3k1JbFh0K-jd4gUptxQ-30" style="edgeStyle=orthogonalEdgeStyle;rounded=0;orthogonalLoop=1;jettySize=auto;html=1;entryX=0.5;entryY=0;entryDx=0;entryDy=0;exitX=0.5;exitY=1;exitDx=0;exitDy=0;fillColor=#dae8fc;strokeColor=#6c8ebf;" edge="1" parent="1" source="n3k1JbFh0K-jd4gUptxQ-31" target="n3k1JbFh0K-jd4gUptxQ-12">
          <mxGeometry relative="1" as="geometry">
            <Array as="points">
              <mxPoint x="420" y="520" />
              <mxPoint x="612" y="520" />
            </Array>
          </mxGeometry>
        </mxCell>
        <mxCell id="n3k1JbFh0K-jd4gUptxQ-31" value="router" style="rounded=1;whiteSpace=wrap;html=1;fillColor=#dae8fc;strokeColor=#6c8ebf;" vertex="1" parent="1">
          <mxGeometry x="360" y="417" width="120" height="60" as="geometry" />
        </mxCell>
        <mxCell id="n3k1JbFh0K-jd4gUptxQ-32" style="edgeStyle=orthogonalEdgeStyle;rounded=0;orthogonalLoop=1;jettySize=auto;html=1;startArrow=classic;startFill=1;endArrow=none;endFill=0;fillColor=#dae8fc;strokeColor=#6c8ebf;" edge="1" parent="1" source="n3k1JbFh0K-jd4gUptxQ-34" target="n3k1JbFh0K-jd4gUptxQ-1">
          <mxGeometry relative="1" as="geometry" />
        </mxCell>
        <mxCell id="n3k1JbFh0K-jd4gUptxQ-33" style="edgeStyle=orthogonalEdgeStyle;rounded=0;orthogonalLoop=1;jettySize=auto;html=1;entryX=0;entryY=0.5;entryDx=0;entryDy=0;startArrow=classic;startFill=1;endArrow=none;endFill=0;fillColor=#dae8fc;strokeColor=#6c8ebf;" edge="1" parent="1" source="n3k1JbFh0K-jd4gUptxQ-34" target="n3k1JbFh0K-jd4gUptxQ-12">
          <mxGeometry relative="1" as="geometry" />
        </mxCell>
        <mxCell id="n3k1JbFh0K-jd4gUptxQ-34" value="configSvr" style="rounded=1;whiteSpace=wrap;html=1;fillColor=#dae8fc;strokeColor=#6c8ebf;" vertex="1" parent="1">
          <mxGeometry x="360" y="640" width="120" height="60" as="geometry" />
        </mxCell>
        <mxCell id="n3k1JbFh0K-jd4gUptxQ-40" style="edgeStyle=orthogonalEdgeStyle;rounded=0;orthogonalLoop=1;jettySize=auto;html=1;entryX=0.5;entryY=0;entryDx=0;entryDy=0;exitX=0.25;exitY=1;exitDx=0;exitDy=0;fillColor=#dae8fc;strokeColor=#6c8ebf;startArrow=classic;startFill=1;" edge="1" parent="1" source="n3k1JbFh0K-jd4gUptxQ-36" target="n3k1JbFh0K-jd4gUptxQ-27">
          <mxGeometry relative="1" as="geometry">
            <Array as="points">
              <mxPoint x="270" y="300" />
              <mxPoint x="420" y="300" />
            </Array>
          </mxGeometry>
        </mxCell>
        <mxCell id="n3k1JbFh0K-jd4gUptxQ-54" style="edgeStyle=orthogonalEdgeStyle;rounded=0;orthogonalLoop=1;jettySize=auto;html=1;exitX=0.75;exitY=0;exitDx=0;exitDy=0;entryX=0.375;entryY=1;entryDx=0;entryDy=0;dashed=1;fillColor=#e1d5e7;strokeColor=#9673a6;" edge="1" parent="1" source="n3k1JbFh0K-jd4gUptxQ-36" target="n3k1JbFh0K-jd4gUptxQ-50">
          <mxGeometry relative="1" as="geometry">
            <Array as="points">
              <mxPoint x="330" y="40" />
              <mxPoint x="657" y="40" />
            </Array>
          </mxGeometry>
        </mxCell>
        <mxCell id="n3k1JbFh0K-jd4gUptxQ-36" value="pymongo-api" style="rounded=1;whiteSpace=wrap;html=1;fillColor=#d5e8d4;strokeColor=#82b366;" vertex="1" parent="1">
          <mxGeometry x="240" y="90" width="120" height="60" as="geometry" />
        </mxCell>
        <mxCell id="n3k1JbFh0K-jd4gUptxQ-41" style="edgeStyle=orthogonalEdgeStyle;rounded=0;orthogonalLoop=1;jettySize=auto;html=1;exitX=0.75;exitY=1;exitDx=0;exitDy=0;entryX=0.5;entryY=0;entryDx=0;entryDy=0;entryPerimeter=0;startArrow=classic;startFill=1;fillColor=#f8cecc;strokeColor=#b85450;" edge="1" parent="1" source="n3k1JbFh0K-jd4gUptxQ-36" target="n3k1JbFh0K-jd4gUptxQ-24">
          <mxGeometry relative="1" as="geometry" />
        </mxCell>
        <mxCell id="n3k1JbFh0K-jd4gUptxQ-42" style="edgeStyle=orthogonalEdgeStyle;rounded=0;orthogonalLoop=1;jettySize=auto;html=1;exitX=0.25;exitY=1;exitDx=0;exitDy=0;entryX=0.5;entryY=0;entryDx=0;entryDy=0;entryPerimeter=0;fillColor=#f8cecc;strokeColor=#b85450;startArrow=classic;startFill=1;" edge="1" parent="1" source="n3k1JbFh0K-jd4gUptxQ-4" target="n3k1JbFh0K-jd4gUptxQ-24">
          <mxGeometry relative="1" as="geometry" />
        </mxCell>
        <mxCell id="n3k1JbFh0K-jd4gUptxQ-49" style="edgeStyle=orthogonalEdgeStyle;rounded=0;orthogonalLoop=1;jettySize=auto;html=1;entryX=0.5;entryY=0;entryDx=0;entryDy=0;" edge="1" parent="1" target="n3k1JbFh0K-jd4gUptxQ-44">
          <mxGeometry relative="1" as="geometry">
            <mxPoint x="414" y="-90" as="sourcePoint" />
          </mxGeometry>
        </mxCell>
        <mxCell id="n3k1JbFh0K-jd4gUptxQ-43" value="Actor" style="shape=umlActor;verticalLabelPosition=bottom;verticalAlign=top;html=1;outlineConnect=0;" vertex="1" parent="1">
          <mxGeometry x="399" y="-170" width="30" height="60" as="geometry" />
        </mxCell>
        <mxCell id="n3k1JbFh0K-jd4gUptxQ-46" style="edgeStyle=orthogonalEdgeStyle;rounded=0;orthogonalLoop=1;jettySize=auto;html=1;entryX=0.5;entryY=0;entryDx=0;entryDy=0;fillColor=#fff2cc;strokeColor=#d6b656;" edge="1" parent="1" source="n3k1JbFh0K-jd4gUptxQ-44" target="n3k1JbFh0K-jd4gUptxQ-36">
          <mxGeometry relative="1" as="geometry">
            <Array as="points">
              <mxPoint x="414" y="20" />
              <mxPoint x="300" y="20" />
            </Array>
          </mxGeometry>
        </mxCell>
        <mxCell id="n3k1JbFh0K-jd4gUptxQ-48" style="edgeStyle=orthogonalEdgeStyle;rounded=0;orthogonalLoop=1;jettySize=auto;html=1;entryX=0.5;entryY=0;entryDx=0;entryDy=0;exitX=0.5;exitY=1;exitDx=0;exitDy=0;fillColor=#fff2cc;strokeColor=#d6b656;" edge="1" parent="1" source="n3k1JbFh0K-jd4gUptxQ-44" target="n3k1JbFh0K-jd4gUptxQ-4">
          <mxGeometry relative="1" as="geometry">
            <Array as="points">
              <mxPoint x="414" y="20" />
              <mxPoint x="540" y="20" />
            </Array>
          </mxGeometry>
        </mxCell>
        <mxCell id="n3k1JbFh0K-jd4gUptxQ-51" style="edgeStyle=orthogonalEdgeStyle;rounded=0;orthogonalLoop=1;jettySize=auto;html=1;exitX=1;exitY=0.5;exitDx=0;exitDy=0;entryX=0;entryY=0.5;entryDx=0;entryDy=0;dashed=1;fillColor=#e1d5e7;strokeColor=#9673a6;" edge="1" parent="1" source="n3k1JbFh0K-jd4gUptxQ-44" target="n3k1JbFh0K-jd4gUptxQ-50">
          <mxGeometry relative="1" as="geometry">
            <Array as="points">
              <mxPoint x="602" y="-25" />
            </Array>
          </mxGeometry>
        </mxCell>
        <mxCell id="n3k1JbFh0K-jd4gUptxQ-44" value="gateway" style="shape=hexagon;perimeter=hexagonPerimeter2;whiteSpace=wrap;html=1;fixedSize=1;fillColor=#ffe6cc;strokeColor=#d79b00;" vertex="1" parent="1">
          <mxGeometry x="354" y="-50" width="120" height="50" as="geometry" />
        </mxCell>
        <mxCell id="n3k1JbFh0K-jd4gUptxQ-50" value="service registry" style="shape=hexagon;perimeter=hexagonPerimeter2;whiteSpace=wrap;html=1;fixedSize=1;fillColor=#e1d5e7;strokeColor=#9673a6;" vertex="1" parent="1">
          <mxGeometry x="612" y="-50" width="120" height="50" as="geometry" />
        </mxCell>
      </root>
    </mxGraphModel>
  </diagram>
  <diagram id="XJjwcQ4pd5yOz3Nxo3c3" name="Final">
    <mxGraphModel dx="794" dy="2383" grid="1" gridSize="10" guides="1" tooltips="1" connect="1" arrows="1" fold="1" page="1" pageScale="1" pageWidth="827" pageHeight="1169" math="0" shadow="0">
      <root>
        <mxCell id="0" />
        <mxCell id="1" parent="0" />
        <mxCell id="MRTrUgOMA8ziw0p3NafQ-1" value="" style="rounded=1;whiteSpace=wrap;html=1;fillColor=default;strokeColor=#6c8ebf;" vertex="1" parent="1">
          <mxGeometry x="116" y="550" width="220" height="240" as="geometry" />
        </mxCell>
        <mxCell id="MRTrUgOMA8ziw0p3NafQ-2" value="MongoDB&lt;div&gt;slave1&lt;/div&gt;" style="shape=cylinder3;whiteSpace=wrap;html=1;boundedLbl=1;backgroundOutline=1;size=15;" vertex="1" parent="1">
          <mxGeometry x="136" y="680" width="60" height="80" as="geometry" />
        </mxCell>
        <mxCell id="MRTrUgOMA8ziw0p3NafQ-3" style="edgeStyle=orthogonalEdgeStyle;rounded=0;orthogonalLoop=1;jettySize=auto;html=1;entryX=0.5;entryY=0;entryDx=0;entryDy=0;fillColor=#dae8fc;strokeColor=#6c8ebf;startArrow=classic;startFill=1;exitX=0.75;exitY=1;exitDx=0;exitDy=0;" edge="1" parent="1" source="MRTrUgOMA8ziw0p3NafQ-5" target="MRTrUgOMA8ziw0p3NafQ-27">
          <mxGeometry relative="1" as="geometry">
            <Array as="points">
              <mxPoint x="570" y="300" />
              <mxPoint x="420" y="300" />
            </Array>
          </mxGeometry>
        </mxCell>
        <mxCell id="MRTrUgOMA8ziw0p3NafQ-4" style="edgeStyle=orthogonalEdgeStyle;rounded=0;orthogonalLoop=1;jettySize=auto;html=1;exitX=0.75;exitY=0;exitDx=0;exitDy=0;entryX=0.625;entryY=1;entryDx=0;entryDy=0;fillColor=#fff2cc;strokeColor=#d6b656;" edge="1" parent="1" source="MRTrUgOMA8ziw0p3NafQ-5" target="MRTrUgOMA8ziw0p3NafQ-46">
          <mxGeometry relative="1" as="geometry">
            <Array as="points">
              <mxPoint x="570" y="70" />
              <mxPoint x="687" y="70" />
            </Array>
          </mxGeometry>
        </mxCell>
        <mxCell id="MRTrUgOMA8ziw0p3NafQ-5" value="pymongo-api" style="rounded=1;whiteSpace=wrap;html=1;fillColor=#d5e8d4;strokeColor=#82b366;" vertex="1" parent="1">
          <mxGeometry x="480" y="90" width="120" height="60" as="geometry" />
        </mxCell>
        <mxCell id="MRTrUgOMA8ziw0p3NafQ-6" value="shard1-1" style="text;html=1;align=center;verticalAlign=middle;whiteSpace=wrap;rounded=0;" vertex="1" parent="1">
          <mxGeometry x="196" y="760" width="60" height="30" as="geometry" />
        </mxCell>
        <mxCell id="MRTrUgOMA8ziw0p3NafQ-7" value="&lt;h1 style=&quot;margin-top: 0px;&quot;&gt;&lt;span style=&quot;text-align: center;&quot;&gt;&lt;font style=&quot;font-size: 14px;&quot;&gt;Шардирование по hash(user_id)%2&lt;/font&gt;&lt;/span&gt;&lt;br&gt;&lt;/h1&gt;&lt;p&gt;&lt;font&gt;где hash -&amp;nbsp;&lt;span style=&quot;color: rgb(64, 64, 64); background-color: transparent;&quot;&gt;хэш-функция (например, MD5) для преобразования ID пользователя в число, затем применяется остаток от деления на количество серверов (шардов).&lt;/span&gt;&lt;/font&gt;&lt;/p&gt;" style="text;html=1;whiteSpace=wrap;overflow=hidden;rounded=0;" vertex="1" parent="1">
          <mxGeometry x="116" y="870" width="286" height="120" as="geometry" />
        </mxCell>
        <mxCell id="MRTrUgOMA8ziw0p3NafQ-8" value="MongoDB&lt;div&gt;slave2&lt;/div&gt;" style="shape=cylinder3;whiteSpace=wrap;html=1;boundedLbl=1;backgroundOutline=1;size=15;" vertex="1" parent="1">
          <mxGeometry x="256" y="680" width="60" height="80" as="geometry" />
        </mxCell>
        <mxCell id="MRTrUgOMA8ziw0p3NafQ-9" value="MongoDB&lt;div&gt;master&lt;/div&gt;" style="shape=cylinder3;whiteSpace=wrap;html=1;boundedLbl=1;backgroundOutline=1;size=15;fillColor=default;strokeColor=#6c8ebf;" vertex="1" parent="1">
          <mxGeometry x="196" y="560" width="60" height="80" as="geometry" />
        </mxCell>
        <mxCell id="MRTrUgOMA8ziw0p3NafQ-10" style="edgeStyle=orthogonalEdgeStyle;rounded=0;orthogonalLoop=1;jettySize=auto;html=1;exitX=0.5;exitY=0;exitDx=0;exitDy=0;exitPerimeter=0;entryX=0.5;entryY=1;entryDx=0;entryDy=0;entryPerimeter=0;startArrow=classic;startFill=1;curved=1;" edge="1" parent="1" source="MRTrUgOMA8ziw0p3NafQ-8" target="MRTrUgOMA8ziw0p3NafQ-9">
          <mxGeometry relative="1" as="geometry" />
        </mxCell>
        <mxCell id="MRTrUgOMA8ziw0p3NafQ-11" value="репликация" style="edgeLabel;html=1;align=center;verticalAlign=middle;resizable=0;points=[];" vertex="1" connectable="0" parent="MRTrUgOMA8ziw0p3NafQ-10">
          <mxGeometry x="0.18" relative="1" as="geometry">
            <mxPoint x="-21" y="6" as="offset" />
          </mxGeometry>
        </mxCell>
        <mxCell id="MRTrUgOMA8ziw0p3NafQ-12" style="edgeStyle=orthogonalEdgeStyle;rounded=0;orthogonalLoop=1;jettySize=auto;html=1;exitX=0.5;exitY=0;exitDx=0;exitDy=0;exitPerimeter=0;entryX=0.5;entryY=1;entryDx=0;entryDy=0;entryPerimeter=0;strokeColor=default;startArrow=classic;startFill=1;curved=1;" edge="1" parent="1" source="MRTrUgOMA8ziw0p3NafQ-2" target="MRTrUgOMA8ziw0p3NafQ-9">
          <mxGeometry relative="1" as="geometry" />
        </mxCell>
        <mxCell id="MRTrUgOMA8ziw0p3NafQ-13" value="" style="rounded=1;whiteSpace=wrap;html=1;fillColor=default;strokeColor=#6c8ebf;" vertex="1" parent="1">
          <mxGeometry x="502" y="550" width="220" height="240" as="geometry" />
        </mxCell>
        <mxCell id="MRTrUgOMA8ziw0p3NafQ-14" value="MongoDB&lt;div&gt;slave1&lt;/div&gt;" style="shape=cylinder3;whiteSpace=wrap;html=1;boundedLbl=1;backgroundOutline=1;size=15;" vertex="1" parent="1">
          <mxGeometry x="522" y="680" width="60" height="80" as="geometry" />
        </mxCell>
        <mxCell id="MRTrUgOMA8ziw0p3NafQ-15" value="shard1-2" style="text;html=1;align=center;verticalAlign=middle;whiteSpace=wrap;rounded=0;" vertex="1" parent="1">
          <mxGeometry x="582" y="760" width="60" height="30" as="geometry" />
        </mxCell>
        <mxCell id="MRTrUgOMA8ziw0p3NafQ-16" value="MongoDB&lt;div&gt;slave2&lt;/div&gt;" style="shape=cylinder3;whiteSpace=wrap;html=1;boundedLbl=1;backgroundOutline=1;size=15;" vertex="1" parent="1">
          <mxGeometry x="642" y="680" width="60" height="80" as="geometry" />
        </mxCell>
        <mxCell id="MRTrUgOMA8ziw0p3NafQ-17" value="MongoDB&lt;div&gt;master&lt;/div&gt;" style="shape=cylinder3;whiteSpace=wrap;html=1;boundedLbl=1;backgroundOutline=1;size=15;fillColor=default;strokeColor=#6c8ebf;" vertex="1" parent="1">
          <mxGeometry x="582" y="560" width="60" height="80" as="geometry" />
        </mxCell>
        <mxCell id="MRTrUgOMA8ziw0p3NafQ-18" style="edgeStyle=orthogonalEdgeStyle;rounded=0;orthogonalLoop=1;jettySize=auto;html=1;exitX=0.5;exitY=0;exitDx=0;exitDy=0;exitPerimeter=0;entryX=0.5;entryY=1;entryDx=0;entryDy=0;entryPerimeter=0;startArrow=classic;startFill=1;curved=1;" edge="1" parent="1" source="MRTrUgOMA8ziw0p3NafQ-16" target="MRTrUgOMA8ziw0p3NafQ-17">
          <mxGeometry relative="1" as="geometry" />
        </mxCell>
        <mxCell id="MRTrUgOMA8ziw0p3NafQ-19" style="edgeStyle=orthogonalEdgeStyle;rounded=0;orthogonalLoop=1;jettySize=auto;html=1;exitX=0.5;exitY=0;exitDx=0;exitDy=0;exitPerimeter=0;entryX=0.5;entryY=1;entryDx=0;entryDy=0;entryPerimeter=0;strokeColor=default;startArrow=classic;startFill=1;curved=1;" edge="1" parent="1" source="MRTrUgOMA8ziw0p3NafQ-14" target="MRTrUgOMA8ziw0p3NafQ-17">
          <mxGeometry relative="1" as="geometry" />
        </mxCell>
        <mxCell id="MRTrUgOMA8ziw0p3NafQ-20" value="репликация" style="edgeLabel;html=1;align=center;verticalAlign=middle;resizable=0;points=[];" vertex="1" connectable="0" parent="1">
          <mxGeometry x="612" y="666" as="geometry" />
        </mxCell>
        <mxCell id="MRTrUgOMA8ziw0p3NafQ-21" style="edgeStyle=orthogonalEdgeStyle;rounded=0;orthogonalLoop=1;jettySize=auto;html=1;exitX=1;exitY=0.5;exitDx=0;exitDy=0;exitPerimeter=0;entryX=0;entryY=0.5;entryDx=0;entryDy=0;entryPerimeter=0;strokeColor=default;startArrow=classic;startFill=1;dashed=1;" edge="1" parent="1" source="MRTrUgOMA8ziw0p3NafQ-9" target="MRTrUgOMA8ziw0p3NafQ-17">
          <mxGeometry relative="1" as="geometry" />
        </mxCell>
        <mxCell id="MRTrUgOMA8ziw0p3NafQ-22" value="multi-master репликация" style="edgeLabel;html=1;align=center;verticalAlign=middle;resizable=0;points=[];fontSize=12;" vertex="1" connectable="0" parent="MRTrUgOMA8ziw0p3NafQ-21">
          <mxGeometry x="-0.0333" y="-1" relative="1" as="geometry">
            <mxPoint x="6" y="-1" as="offset" />
          </mxGeometry>
        </mxCell>
        <mxCell id="MRTrUgOMA8ziw0p3NafQ-23" style="edgeStyle=orthogonalEdgeStyle;rounded=0;orthogonalLoop=1;jettySize=auto;html=1;entryX=0.5;entryY=1;entryDx=0;entryDy=0;startArrow=classic;startFill=1;curved=1;exitX=0.5;exitY=1;exitDx=0;exitDy=0;fillColor=#dae8fc;strokeColor=#6c8ebf;" edge="1" parent="1" source="MRTrUgOMA8ziw0p3NafQ-13" target="MRTrUgOMA8ziw0p3NafQ-1">
          <mxGeometry relative="1" as="geometry">
            <Array as="points">
              <mxPoint x="612" y="830" />
              <mxPoint x="226" y="830" />
            </Array>
            <mxPoint x="760" y="950" as="sourcePoint" />
          </mxGeometry>
        </mxCell>
        <mxCell id="MRTrUgOMA8ziw0p3NafQ-24" value="&lt;h1 style=&quot;margin-top: 0px;&quot;&gt;&lt;span style=&quot;text-align: center;&quot;&gt;&lt;font style=&quot;font-size: 14px;&quot;&gt;Репликация multi-master&lt;/font&gt;&lt;/span&gt;&lt;br&gt;&lt;/h1&gt;&lt;p&gt;&lt;span style=&quot;color: rgba(0, 0, 0, 0.85); white-space-collapse: preserve; background-color: rgb(255, 255, 255);&quot;&gt;&lt;font face=&quot;Helvetica&quot; style=&quot;&quot;&gt;для поддержания горячей резервной копии всех сервисов в другом ЦОДе, сохраняя в самом ЦОДе репликацию master-slave.&lt;/font&gt;&lt;/span&gt;&lt;br&gt;&lt;/p&gt;" style="text;html=1;whiteSpace=wrap;overflow=hidden;rounded=0;" vertex="1" parent="1">
          <mxGeometry x="436" y="870" width="286" height="120" as="geometry" />
        </mxCell>
        <mxCell id="MRTrUgOMA8ziw0p3NafQ-25" value="Redis" style="shape=cylinder3;whiteSpace=wrap;html=1;boundedLbl=1;backgroundOutline=1;size=15;fillColor=#f8cecc;strokeColor=#b85450;" vertex="1" parent="1">
          <mxGeometry x="390" y="197" width="60" height="80" as="geometry" />
        </mxCell>
        <mxCell id="MRTrUgOMA8ziw0p3NafQ-26" style="edgeStyle=orthogonalEdgeStyle;rounded=0;orthogonalLoop=1;jettySize=auto;html=1;exitX=0.5;exitY=1;exitDx=0;exitDy=0;entryX=0.5;entryY=0;entryDx=0;entryDy=0;fillColor=#dae8fc;strokeColor=#6c8ebf;startArrow=classic;startFill=1;" edge="1" parent="1" source="MRTrUgOMA8ziw0p3NafQ-27" target="MRTrUgOMA8ziw0p3NafQ-31">
          <mxGeometry relative="1" as="geometry" />
        </mxCell>
        <mxCell id="MRTrUgOMA8ziw0p3NafQ-27" value="driver" style="rounded=1;whiteSpace=wrap;html=1;fillColor=#dae8fc;strokeColor=#6c8ebf;" vertex="1" parent="1">
          <mxGeometry x="360" y="327" width="120" height="60" as="geometry" />
        </mxCell>
        <mxCell id="MRTrUgOMA8ziw0p3NafQ-28" style="edgeStyle=orthogonalEdgeStyle;rounded=0;orthogonalLoop=1;jettySize=auto;html=1;fillColor=#dae8fc;strokeColor=#6c8ebf;" edge="1" parent="1" source="MRTrUgOMA8ziw0p3NafQ-31" target="MRTrUgOMA8ziw0p3NafQ-34">
          <mxGeometry relative="1" as="geometry" />
        </mxCell>
        <mxCell id="MRTrUgOMA8ziw0p3NafQ-29" style="edgeStyle=orthogonalEdgeStyle;rounded=0;orthogonalLoop=1;jettySize=auto;html=1;entryX=0.5;entryY=0;entryDx=0;entryDy=0;exitX=0.5;exitY=1;exitDx=0;exitDy=0;fillColor=#dae8fc;strokeColor=#6c8ebf;" edge="1" parent="1" source="MRTrUgOMA8ziw0p3NafQ-31" target="MRTrUgOMA8ziw0p3NafQ-1">
          <mxGeometry relative="1" as="geometry">
            <Array as="points">
              <mxPoint x="420" y="520" />
              <mxPoint x="226" y="520" />
            </Array>
          </mxGeometry>
        </mxCell>
        <mxCell id="MRTrUgOMA8ziw0p3NafQ-30" style="edgeStyle=orthogonalEdgeStyle;rounded=0;orthogonalLoop=1;jettySize=auto;html=1;entryX=0.5;entryY=0;entryDx=0;entryDy=0;exitX=0.5;exitY=1;exitDx=0;exitDy=0;fillColor=#dae8fc;strokeColor=#6c8ebf;" edge="1" parent="1" source="MRTrUgOMA8ziw0p3NafQ-31" target="MRTrUgOMA8ziw0p3NafQ-13">
          <mxGeometry relative="1" as="geometry">
            <Array as="points">
              <mxPoint x="420" y="520" />
              <mxPoint x="612" y="520" />
            </Array>
          </mxGeometry>
        </mxCell>
        <mxCell id="MRTrUgOMA8ziw0p3NafQ-31" value="router" style="rounded=1;whiteSpace=wrap;html=1;fillColor=#dae8fc;strokeColor=#6c8ebf;" vertex="1" parent="1">
          <mxGeometry x="360" y="417" width="120" height="60" as="geometry" />
        </mxCell>
        <mxCell id="MRTrUgOMA8ziw0p3NafQ-32" style="edgeStyle=orthogonalEdgeStyle;rounded=0;orthogonalLoop=1;jettySize=auto;html=1;startArrow=classic;startFill=1;endArrow=none;endFill=0;fillColor=#dae8fc;strokeColor=#6c8ebf;" edge="1" parent="1" source="MRTrUgOMA8ziw0p3NafQ-34" target="MRTrUgOMA8ziw0p3NafQ-1">
          <mxGeometry relative="1" as="geometry" />
        </mxCell>
        <mxCell id="MRTrUgOMA8ziw0p3NafQ-33" style="edgeStyle=orthogonalEdgeStyle;rounded=0;orthogonalLoop=1;jettySize=auto;html=1;entryX=0;entryY=0.5;entryDx=0;entryDy=0;startArrow=classic;startFill=1;endArrow=none;endFill=0;fillColor=#dae8fc;strokeColor=#6c8ebf;" edge="1" parent="1" source="MRTrUgOMA8ziw0p3NafQ-34" target="MRTrUgOMA8ziw0p3NafQ-13">
          <mxGeometry relative="1" as="geometry" />
        </mxCell>
        <mxCell id="MRTrUgOMA8ziw0p3NafQ-34" value="configSvr" style="rounded=1;whiteSpace=wrap;html=1;fillColor=#dae8fc;strokeColor=#6c8ebf;" vertex="1" parent="1">
          <mxGeometry x="360" y="640" width="120" height="60" as="geometry" />
        </mxCell>
        <mxCell id="MRTrUgOMA8ziw0p3NafQ-35" style="edgeStyle=orthogonalEdgeStyle;rounded=0;orthogonalLoop=1;jettySize=auto;html=1;entryX=0.5;entryY=0;entryDx=0;entryDy=0;exitX=0.25;exitY=1;exitDx=0;exitDy=0;fillColor=#dae8fc;strokeColor=#6c8ebf;startArrow=classic;startFill=1;" edge="1" parent="1" source="MRTrUgOMA8ziw0p3NafQ-37" target="MRTrUgOMA8ziw0p3NafQ-27">
          <mxGeometry relative="1" as="geometry">
            <Array as="points">
              <mxPoint x="270" y="300" />
              <mxPoint x="420" y="300" />
            </Array>
          </mxGeometry>
        </mxCell>
        <mxCell id="MRTrUgOMA8ziw0p3NafQ-36" style="edgeStyle=orthogonalEdgeStyle;rounded=0;orthogonalLoop=1;jettySize=auto;html=1;exitX=0.75;exitY=0;exitDx=0;exitDy=0;entryX=0.375;entryY=1;entryDx=0;entryDy=0;fillColor=#fff2cc;strokeColor=#d6b656;" edge="1" parent="1" source="MRTrUgOMA8ziw0p3NafQ-37" target="MRTrUgOMA8ziw0p3NafQ-46">
          <mxGeometry relative="1" as="geometry">
            <Array as="points">
              <mxPoint x="330" y="40" />
              <mxPoint x="657" y="40" />
            </Array>
          </mxGeometry>
        </mxCell>
        <mxCell id="MRTrUgOMA8ziw0p3NafQ-37" value="pymongo-api" style="rounded=1;whiteSpace=wrap;html=1;fillColor=#d5e8d4;strokeColor=#82b366;" vertex="1" parent="1">
          <mxGeometry x="240" y="90" width="120" height="60" as="geometry" />
        </mxCell>
        <mxCell id="MRTrUgOMA8ziw0p3NafQ-38" style="edgeStyle=orthogonalEdgeStyle;rounded=0;orthogonalLoop=1;jettySize=auto;html=1;exitX=0.75;exitY=1;exitDx=0;exitDy=0;entryX=0.5;entryY=0;entryDx=0;entryDy=0;entryPerimeter=0;startArrow=classic;startFill=1;fillColor=#f8cecc;strokeColor=#b85450;" edge="1" parent="1" source="MRTrUgOMA8ziw0p3NafQ-37" target="MRTrUgOMA8ziw0p3NafQ-25">
          <mxGeometry relative="1" as="geometry" />
        </mxCell>
        <mxCell id="MRTrUgOMA8ziw0p3NafQ-39" style="edgeStyle=orthogonalEdgeStyle;rounded=0;orthogonalLoop=1;jettySize=auto;html=1;exitX=0.25;exitY=1;exitDx=0;exitDy=0;entryX=0.5;entryY=0;entryDx=0;entryDy=0;entryPerimeter=0;fillColor=#f8cecc;strokeColor=#b85450;startArrow=classic;startFill=1;" edge="1" parent="1" source="MRTrUgOMA8ziw0p3NafQ-5" target="MRTrUgOMA8ziw0p3NafQ-25">
          <mxGeometry relative="1" as="geometry" />
        </mxCell>
        <mxCell id="MRTrUgOMA8ziw0p3NafQ-40" style="edgeStyle=orthogonalEdgeStyle;rounded=0;orthogonalLoop=1;jettySize=auto;html=1;entryX=0.5;entryY=0;entryDx=0;entryDy=0;fillColor=#ffe6cc;strokeColor=#d79b00;" edge="1" parent="1" target="MRTrUgOMA8ziw0p3NafQ-45">
          <mxGeometry relative="1" as="geometry">
            <mxPoint x="414" y="-110" as="sourcePoint" />
          </mxGeometry>
        </mxCell>
        <mxCell id="fHb3OcvmwOdVlvNs6ef3-2" style="edgeStyle=orthogonalEdgeStyle;rounded=0;orthogonalLoop=1;jettySize=auto;html=1;fillColor=#e1d5e7;strokeColor=#9673a6;" edge="1" parent="1" target="fHb3OcvmwOdVlvNs6ef3-1">
          <mxGeometry relative="1" as="geometry">
            <mxPoint x="414" y="-110" as="sourcePoint" />
          </mxGeometry>
        </mxCell>
        <mxCell id="MRTrUgOMA8ziw0p3NafQ-41" value="Actor" style="shape=umlActor;verticalLabelPosition=bottom;verticalAlign=top;html=1;outlineConnect=0;" vertex="1" parent="1">
          <mxGeometry x="399" y="-200" width="30" height="60" as="geometry" />
        </mxCell>
        <mxCell id="MRTrUgOMA8ziw0p3NafQ-42" style="edgeStyle=orthogonalEdgeStyle;rounded=0;orthogonalLoop=1;jettySize=auto;html=1;entryX=0.5;entryY=0;entryDx=0;entryDy=0;fillColor=#fff2cc;strokeColor=#BF8854;" edge="1" parent="1" source="MRTrUgOMA8ziw0p3NafQ-45" target="MRTrUgOMA8ziw0p3NafQ-37">
          <mxGeometry relative="1" as="geometry">
            <Array as="points">
              <mxPoint x="414" y="20" />
              <mxPoint x="300" y="20" />
            </Array>
          </mxGeometry>
        </mxCell>
        <mxCell id="MRTrUgOMA8ziw0p3NafQ-43" style="edgeStyle=orthogonalEdgeStyle;rounded=0;orthogonalLoop=1;jettySize=auto;html=1;entryX=0.5;entryY=0;entryDx=0;entryDy=0;exitX=0.5;exitY=1;exitDx=0;exitDy=0;fillColor=#ffe6cc;strokeColor=#BF8854;" edge="1" parent="1" source="MRTrUgOMA8ziw0p3NafQ-45" target="MRTrUgOMA8ziw0p3NafQ-5">
          <mxGeometry relative="1" as="geometry">
            <Array as="points">
              <mxPoint x="414" y="20" />
              <mxPoint x="540" y="20" />
            </Array>
          </mxGeometry>
        </mxCell>
        <mxCell id="MRTrUgOMA8ziw0p3NafQ-44" style="edgeStyle=orthogonalEdgeStyle;rounded=0;orthogonalLoop=1;jettySize=auto;html=1;exitX=1;exitY=0.5;exitDx=0;exitDy=0;entryX=0;entryY=0.5;entryDx=0;entryDy=0;fillColor=#fff2cc;strokeColor=#d6b656;" edge="1" parent="1" source="MRTrUgOMA8ziw0p3NafQ-45" target="MRTrUgOMA8ziw0p3NafQ-46">
          <mxGeometry relative="1" as="geometry">
            <Array as="points">
              <mxPoint x="602" y="-35" />
            </Array>
          </mxGeometry>
        </mxCell>
        <mxCell id="MRTrUgOMA8ziw0p3NafQ-45" value="gateway" style="shape=hexagon;perimeter=hexagonPerimeter2;whiteSpace=wrap;html=1;fixedSize=1;fillColor=#ffe6cc;strokeColor=#d79b00;" vertex="1" parent="1">
          <mxGeometry x="354" y="-60" width="120" height="50" as="geometry" />
        </mxCell>
        <mxCell id="MRTrUgOMA8ziw0p3NafQ-46" value="service registry" style="shape=hexagon;perimeter=hexagonPerimeter2;whiteSpace=wrap;html=1;fixedSize=1;fillColor=#fff2cc;strokeColor=#d6b656;" vertex="1" parent="1">
          <mxGeometry x="612" y="-60" width="120" height="50" as="geometry" />
        </mxCell>
        <mxCell id="fHb3OcvmwOdVlvNs6ef3-1" value="CDN" style="ellipse;shape=cloud;whiteSpace=wrap;html=1;fillColor=#e1d5e7;strokeColor=#9673a6;" vertex="1" parent="1">
          <mxGeometry x="160" y="-150" width="120" height="80" as="geometry" />
        </mxCell>
      </root>
    </mxGraphModel>
  </diagram>
</mxfile>
